<svg xmlns="http://www.w3.org/2000/svg" viewBox="0 0 47 46"><defs><style>.cls-1{fill:#573ef1;}.cls-2{fill:none;stroke:#573ef1;stroke-linecap:round;stroke-miterlimit:10;stroke-width:6px;}.cls-3{fill:#f3f4f4;}</style></defs><g id="Calque_2" data-name="Calque 2"><g id="Calque_1-2" data-name="Calque 1"><rect class="cls-1" x="15" y="37" width="11" height="9" rx="4.5"/><path class="cls-2" d="M20,42H37.41A6.59,6.59,0,0,0,44,35.41V3"/><path class="cls-1" d="M39.5,24.69v4a2.82,2.82,0,0,1-2.82,2.82L26.5,31.37a7.37,7.37,0,0,0-.45-1.73c-.13-.33-1.83-4.5-5-4.47s-5,4.06-5.11,4.5a6.82,6.82,0,0,0-.4,1.62L4.32,31.5A2.82,2.82,0,0,1,1.5,28.68v-4A7.19,7.19,0,0,1,8.69,17.5H32.31A7.19,7.19,0,0,1,39.5,24.69Z"/><polygon class="cls-3" points="1 19 12 34 16 34 3 17 0 17 1 19"/><polygon class="cls-3" points="25 17 36 32 40 32 27 15 24 15 25 17"/></g></g></svg>