<svg xmlns="http://www.w3.org/2000/svg" viewBox="0 0 40.75 38.51"><defs><style>.cls-1,.cls-3{fill:#e77cd8;}.cls-2{fill:none;}.cls-2,.cls-3{stroke:#f3f4f4;stroke-miterlimit:10;}</style></defs><g id="Calque_2" data-name="Calque 2"><g id="Calque_1-2" data-name="Calque 1"><path id="m3" class="cls-1" d="M0,37,14,2s1.5-4.5,3.5,0,14,35.5,14,35.5Z"/><path id="m2" class="cls-2" d="M6.5,14.5l3.65,4.56a.4.4,0,0,0,.65,0l4.7-7.52,3.85,6.74a.21.21,0,0,0,.34,0L24.5,12.5"/><path id="m1" class="cls-3" d="M16,37.64,27,12c.22-.47.54-1,1-1,.59,0,1.12.9,1.37,1.44C30.86,15.68,40,38,40,38Z"/><polyline id="m0" class="cls-2" points="22.5 12.68 29.5 21.19 34.5 18.35"/></g></g></svg>