<svg xmlns="http://www.w3.org/2000/svg" viewBox="0 0 39.96 60.09"><defs><style>.cls-1{fill:#ffb400;}.cls-2{fill:none;stroke:#f2f3f3;stroke-miterlimit:10;}</style></defs><g id="Calque_2" data-name="Calque 2"><g id="Calque_1-2" data-name="Calque 1"><ellipse id="g5" class="cls-1" cx="19.88" cy="27.78" rx="11" ry="27.78"/><ellipse id="g4" class="cls-2" cx="19.88" cy="27.78" rx="5.5" ry="8.5"/><rect id="g3" class="cls-2" x="14.38" y="46.78" width="11" height="11" rx="1.13" transform="translate(-31.14 29.37) rotate(-45)"/><path id="g2" class="cls-1" d="M3.19,41.73l3.36-.48a.58.58,0,0,1,.65.63l-.34,3.25L3.8,48.44a.49.49,0,0,1-.69,0L.16,45.74a.5.5,0,0,1,0-.7Z"/><path id="g1" class="cls-1" d="M36.77,13.79l-3.36.48a.57.57,0,0,1-.65-.62l.34-3.26,3.06-3.31a.49.49,0,0,1,.7,0L39.8,9.79a.48.48,0,0,1,0,.69Z"/></g></g></svg>